# xmcd
# Track frame offsets:
# 150
# 2682
# 21308
# 37194
# 53562
# 70042
# 90070
# 105151
# 123416
# 139669
# 152764
# 173869
# 195250
# 217290
#
# Disc length: 3079 seconds
# Revision: 0
# Processed by: cddbd v1.5.1PL2 Copyright (c) Steve Scherf et al.
# Submitted via: VisiTrax 2.9.10.228 - For more info visit www.synapsa.com
#
DISCID=ae0c050e
DTITLE=Pauline Reese - The Good,The Bad and The Ugly
DYEAR=2004
DGENRE=
TTITLE0=The Good,The Bad and The Ugly Intro
TTITLE1=The Good,The bad and The Ugly
TTITLE2=One Less Honky Tonk
TTITLE3=Yellow Wine
TTITLE4=Rainy Day Night
TTITLE5=Honky Tonk Songs
TTITLE6=Old Story
TTITLE7=Not Tonight
TTITLE8=Pawn Shop Rodeo Buckle
TTITLE9=you`re On You Own
TTITLE10=Pick Up The Pieces duet with Willie Nelson
TTITLE11=Remember November
TTITLE12=Cowboy Way
TTITLE13=Dream
EXTD=
EXTT0=
EXTT1=
EXTT2=
EXTT3=
EXTT4=
EXTT5=
EXTT6=
EXTT7=
EXTT8=
EXTT9=
EXTT10=
EXTT11=
EXTT12=
EXTT13=
PLAYORDER=
